<svg xmlns="http://www.w3.org/2000/svg" width="1640" viewBox="0 0 1230 693" height="924" version="1.0"><defs><clipPath id="a"><path d="M.887 0h1228.226v692H.887Zm0 0"/></clipPath><clipPath id="b"><path d="M512 169h106v177.094H512Zm0 0"/></clipPath><clipPath id="c"><path d="M612 169h106v177.094H612Zm0 0"/></clipPath><clipPath id="d"><path d="M288.05 48.773H500V256H288.05Zm0 0"/></clipPath><clipPath id="e"><path d="M730 48.773h211V256H730Zm0 0"/></clipPath><clipPath id="f"><path d="M481.117 57.14h79.387v91.368h-79.387Zm0 0"/></clipPath></defs><g clip-path="url(#a)"><path fill="#FFF" d="M.887 0h1228.226v699.492H.887Zm0 0"/><path fill="#F1E8E7" d="M.887 0h1228.226v692H.887Zm0 0"/><path fill="#FFF" d="M.887 0h1228.226v692H.887Zm0 0"/><path fill="#F1E8E7" d="M.887 0h1228.226v692H.887Zm0 0"/></g><g clip-path="url(#b)"><path fill="#D6968F" d="M615.129 346.094c-.352 0-.703-.07-1.031-.235l-100.403-49.293a2.38 2.38 0 0 1-1.316-2.117l.328-122.73c0-.801.426-1.555 1.106-2a2.38 2.38 0 0 1 2.28-.121l100.403 49.297a2.383 2.383 0 0 1 1.317 2.117l-.329 122.73c0 .801-.425 1.555-1.105 2-.402.211-.824.352-1.25.352Zm-98.047-53.106 95.695 46.989.309-117.508-95.7-46.989Zm0 0"/></g><g clip-path="url(#c)"><path fill="#D6968F" d="M615.129 346.094a2.4 2.4 0 0 1-1.246-.352 2.353 2.353 0 0 1-1.106-2l.332-122.73c0-.895.516-1.719 1.317-2.094l99.742-49.297a2.38 2.38 0 0 1 2.281.121 2.353 2.353 0 0 1 1.106 2l-.332 122.73a2.32 2.32 0 0 1-1.317 2.094l-99.742 49.293a2.65 2.65 0 0 1-1.035.235Zm2.66-123.649-.305 117.485 95.036-46.965.308-117.485Zm0 0"/></g><path fill="#D6968F" d="M615.438 223.34c-.356 0-.708-.07-1.036-.235L514 173.813a2.392 2.392 0 0 1-1.316-2.118c0-.894.52-1.718 1.316-2.12l99.742-49.27a2.3 2.3 0 0 1 2.07 0l100.403 49.293a2.394 2.394 0 0 1 1.316 2.12c0 .891-.52 1.716-1.316 2.118l-99.742 49.293c-.309.14-.66.21-1.035.21Zm-95.063-51.645 95.063 46.68 94.425-46.656-95.062-46.684Zm0 0"/><path fill="#D6968F" d="M665.766 196.637c-.352 0-.707-.075-1.036-.239l-95.953-46.8c-1.175-.563-1.648-1.977-1.082-3.153a2.33 2.33 0 0 1 3.149-1.082l95.957 46.801c1.176.566 1.644 1.977 1.082 3.152a2.363 2.363 0 0 1-2.117 1.32ZM346.715 202.66c-.188 0-.375-.023-.563-.07a213.684 213.684 0 0 1-5.597-1.485 2.37 2.37 0 0 1-1.72-2.468 2.363 2.363 0 0 1 2.118-2.145c.684-.07 1.363-.14 2.047-.234.469-.07.965.023 1.387.234 1.082.567 2.21 1.133 3.34 1.672a2.35 2.35 0 0 1 1.222 2.918 2.375 2.375 0 0 1-2.234 1.578Zm0 0"/><g clip-path="url(#d)"><path fill="#D6968F" d="M496.41 255.672a2.35 2.35 0 0 1-1.883-.965c-12.722-17.273-31.3-28.117-58.418-34.14a2.356 2.356 0 0 1-1.836-2.051 2.312 2.312 0 0 1 1.34-2.375c6.54-3.059 12.254-6.871 16.817-11.153-13.215 5.246-27.727 6.684-41.696 7.649-41.652 2.867-60.703-6.168-68.37-11.813l-.282-.21c-.918-.473-1.34-1.462-1.152-2.473.187-1.012 1.058-1.743 2.07-1.883a78.573 78.573 0 0 0 11.992-2.563c6.774-2 12.961-4.965 18.11-7.625 2.117-1.105 4.21-2.234 6.28-3.34 3.505-1.882 6.798-3.671 10.231-5.32 6.469-3.105 11.992-5.105 17.38-6.281.046 0 .093-.024.14-.024h-.14c-5.528-.093-11.665.637-18.766 2.211-3.907.871-7.786 1.93-11.547 2.942-2.258.613-4.47 1.199-6.657 1.765-5.976 1.504-11.855 2.493-17.453 2.989l-.843.07c-21.051 1.578-40.922-10.281-49.485-29.625-2.21-4.965-2.726-6.539-2.918-7.27-.21-.8 0-1.648.567-2.234a2.33 2.33 0 0 1 2.21-.683c6.774 1.457 13.899 1.93 20.79 1.457 7.054-.446 13.734-1.973 19.332-3.41a480.25 480.25 0 0 0 6.843-1.86c3.836-1.059 7.457-2.07 11.172-2.918 6.985-1.598 12.817-2.281 18.32-2.281h.141c-.047 0-.094-.024-.14-.024-5.387-1.293-11.524-1.953-18.79-2-6.914.024-13.64.282-18.722.543l-.754.047c-25.75 1.106-47.34-18.074-49.2-43.812-.702-9.907-1.292-20.309-1.906-31.344l-.234-4.398c-.07-1.13.707-2.165 1.813-2.426 1.105-.258 2.257.308 2.703 1.343 12.676 29.387 46.285 34.708 78.789 39.86 15.097 2.398 29.37 4.656 41.133 9.27 53.152 15.292 86.125 62.636 86.054 123.601 0 5.457-.66 29.457-.683 30.469a2.355 2.355 0 0 1-1.645 2.191c-.238.07-.472.094-.707.094Zm-53.152-38.215c22.11 5.836 38.875 15.484 50.941 29.367.188-7.765.516-20.281.516-23.93.098-58.8-31.63-104.449-82.758-119.085-.07-.024-.144-.047-.215-.07-11.312-4.446-25.375-6.68-40.262-9.036-28.738-4.562-60.96-9.668-77.257-33.41.492 8.848.988 17.293 1.574 25.363 1.672 23.18 21.098 40.473 44.262 39.461l.73-.023a380.892 380.892 0 0 1 19.004-.567c7.64.047 14.133.73 19.871 2.118 6.352 1.507 12.512 3.93 18.297 7.156.543.304 1.035.914 1.223 1.527.191.66.117 1.363-.211 1.953-.563 1.035-1.832 1.555-2.961 1.2-5.766-1.645-11.645-2.516-17.453-2.54-5.149.024-10.63.657-17.262 2.164-3.598.825-7.172 1.813-10.961 2.872-2.258.632-4.563 1.27-6.914 1.882-5.832 1.48-12.77 3.082-20.203 3.551a79.605 79.605 0 0 1-17.895-.754c.328.801.75 1.742 1.27 2.895 7.761 17.508 25.726 28.308 44.777 26.847l.824-.07c5.34-.469 10.961-1.433 16.7-2.871 2.164-.539 4.351-1.152 6.582-1.738 3.812-1.035 7.738-2.098 11.738-2.989 7.453-1.648 13.945-2.402 19.848-2.332a71.888 71.888 0 0 1 19.425 2.918c1.367.426 2.14 1.86 1.742 3.2a2.529 2.529 0 0 1-2.632 1.812c-5.977-.328-11.903.14-17.57 1.39-5.032 1.106-10.231 2.989-16.344 5.93-3.317 1.598-6.586 3.364-10.043 5.223a266.596 266.596 0 0 1-6.352 3.363c-5.36 2.754-11.781 5.836-18.906 7.953-2.14.66-4.328 1.2-6.54 1.672 8.704 4.54 26.837 10.375 60.63 8.047 17.05-1.176 34.949-3.058 49.718-11.953a2.347 2.347 0 0 1 2.895.375c.75.777.89 1.977.305 2.895-4.399 6.918-11.407 13.246-20.133 18.234Zm-17.496-47.812h.07-.07Zm-30.153-30.75c.024 0 .024.023.047.023 0 0-.023 0-.047-.023Zm1.625-3.93c.024 0 .024 0 .047.023-.023 0-.047-.023-.047-.023Zm0 0"/></g><path fill="#D6968F" d="M883.195 202.66a2.345 2.345 0 0 1-2.21-1.578 2.357 2.357 0 0 1 1.222-2.918c1.129-.539 2.258-1.082 3.34-1.672a2.36 2.36 0 0 1 1.387-.234c.68.094 1.363.164 2.046.234a2.38 2.38 0 0 1 2.114 2.145 2.339 2.339 0 0 1-1.715 2.468c-1.86.52-3.738 1.012-5.598 1.485-.21.047-.398.07-.586.07Zm0 0"/><g clip-path="url(#e)"><path fill="#D6968F" d="M733.5 255.672c-.234 0-.473-.024-.707-.117a2.35 2.35 0 0 1-1.645-2.192c-.023-1.011-.683-25.011-.683-30.468-.094-60.965 32.879-108.31 86.055-123.579 11.757-4.613 26.035-6.87 41.132-9.27 32.504-5.151 66.11-10.495 78.785-39.859a2.36 2.36 0 0 1 2.708-1.367 2.346 2.346 0 0 1 1.808 2.426l-.234 4.399c-.61 11.035-1.2 21.437-1.907 31.343-1.832 25.739-23.445 45.012-49.152 43.813l-.773-.051c-5.082-.258-11.832-.563-18.723-.54-7.266.048-13.406.685-18.766 1.977-.05.024-.097.024-.168.047h.59c5.387 0 11.078.73 17.875 2.282 3.715.847 7.336 1.859 11.145 2.918 2.258.613 4.539 1.246 6.844 1.859 5.597 1.434 12.277 2.965 19.308 3.41 6.918.496 14.043 0 20.606-1.41.797-.164 1.738.07 2.304.66.563.586.868 1.41.657 2.211-.211.754-.727 2.305-2.914 7.27-8.563 19.32-28.434 31.226-49.438 29.625l-.848-.07c-5.597-.497-11.476-1.485-17.449-2.989a474.84 474.84 0 0 1-6.656-1.766c-3.762-1.011-7.621-2.07-11.547-2.941-7.078-1.574-13.219-2.305-18.746-2.211h-.164c.047 0 .094.023.164.023 5.387 1.176 10.89 3.176 17.36 6.282 3.433 1.648 6.726 3.437 10.23 5.32 2.07 1.106 4.136 2.234 6.277 3.34 5.152 2.637 11.313 5.601 18.086 7.601a76.528 76.528 0 0 0 11.996 2.586 2.35 2.35 0 0 1 2 1.93 2.327 2.327 0 0 1-1.226 2.496l-.164.14c-7.665 5.645-26.715 14.657-68.368 11.813-13.945-.965-28.48-2.402-41.699-7.648 4.563 4.281 10.277 8.094 16.817 11.152a2.32 2.32 0 0 1 1.34 2.375 2.409 2.409 0 0 1-1.833 2.051c-27.117 6.023-45.672 16.867-58.398 34.14a2.241 2.241 0 0 1-1.879.989ZM935.688 61.293c-16.301 23.742-48.497 28.848-77.282 33.41-14.886 2.356-28.953 4.59-40.265 9.035l-.211.07c-51.13 14.66-82.832 60.286-82.762 119.087 0 3.648.305 16.164.52 23.93 12.062-13.884 28.832-23.555 50.937-29.368-8.7-4.988-15.707-11.316-20.082-18.234a2.343 2.343 0 0 1 .305-2.895 2.347 2.347 0 0 1 2.894-.375c14.793 8.895 32.664 10.8 49.715 11.953 33.797 2.328 51.906-3.508 60.633-8.047a89.663 89.663 0 0 1-6.563-1.672c-7.125-2.093-13.547-5.199-18.886-7.93a390.953 390.953 0 0 1-6.348-3.386c-3.457-1.86-6.703-3.601-10.043-5.223-6.113-2.941-11.313-4.824-16.344-5.93-5.668-1.273-11.597-1.741-17.617-1.39-1.176.094-2.281-.707-2.61-1.86-.402-1.316.376-2.726 1.716-3.152 6.398-1.882 12.937-2.87 19.472-2.918 5.883-.07 12.371.684 19.828 2.332 4.02.891 7.95 1.977 11.758 2.989 2.235.586 4.422 1.199 6.586 1.738 5.738 1.438 11.36 2.402 16.7 2.871l.82.07c19.027 1.461 37.02-9.34 44.757-26.847.516-1.153.918-2.117 1.27-2.918a78.729 78.729 0 0 1-17.922.777c-7.406-.469-14.367-2.047-20.18-3.55a462.187 462.187 0 0 1-6.937-1.883c-3.785-1.036-7.336-2.024-10.957-2.872-6.61-1.507-12.09-2.164-17.238-2.164-5.813.024-11.692.871-17.477 2.54a2.558 2.558 0 0 1-2.938-1.223c-.308-.543-.402-1.363-.214-1.953a2.464 2.464 0 0 1 1.246-1.528 71.068 71.068 0 0 1 18.277-7.132c5.715-1.387 12.203-2.07 19.848-2.118 7.031 0 13.851.285 19.004.567l.703.047c23.168 1.011 42.617-16.282 44.261-39.461.637-8.094 1.13-16.54 1.625-25.387ZM804.101 169.645h-.07.07Zm28.55-34.657c-.023 0-.023 0-.047.024.024-.024.047-.024.047-.024Zm-15.359-33.437Zm0 0"/></g><g clip-path="url(#f)"><path fill="#D6968F" d="M521.203 63.43c4.344-1.016 5.172-1.852 6.192-6.207 1.011 4.355 1.851 5.183 6.19 6.207-4.339 1.011-5.167 1.851-6.19 6.207-1.02-4.356-1.848-5.184-6.192-6.207Zm21.266 42.363c2.187-14.11 3.957-15.89 18.035-18.078-14.078-2.195-15.852-3.969-18.035-18.078-2.188 14.11-3.961 15.886-18.035 18.078 14.074 2.191 15.847 3.969 18.035 18.078Zm-25.82-28.59c-1.594 32.723-2.883 34.02-35.532 35.613 32.649 1.594 33.938 2.887 35.531 35.61 1.586-32.723 2.88-34.016 35.524-35.61-32.645-1.593-33.938-2.89-35.524-35.613Zm0 0"/></g><path d="M450.845 384.917h-18.668v44.293h5.633v-16.703h13.035c9.176 0 16.07-5.887 16.07-13.797 0-7.91-6.894-13.793-16.07-13.793Zm-1.203 26.324H437.81v-25.059h11.832c6.898 0 11.39 5 11.39 12.528 0 7.53-4.492 12.53-11.39 12.53ZM494.184 429.842c10.95 0 17.594-6.77 17.594-17.085v-27.84h-1.52v27.777c0 9.176-5.633 15.125-14.68 15.125-9.05 0-15.062-5.95-15.062-15.125v-27.777h-5.629v26.765c0 10.946 7.973 18.16 19.297 18.16ZM558.661 384.917v36.699l-30.183-36.7h-4.746v44.294h1.52V389.47l32.777 39.739h2.152v-44.293ZM603.647 384.917h-35.5v1.265h14.996v43.028h5.633v-43.028h14.871ZM631.8 429.842c13.227 0 23.098-9.808 23.098-22.78 0-12.97-9.87-22.778-23.097-22.778-13.16 0-23.031 9.808-23.031 22.777 0 12.973 9.87 22.781 23.03 22.781Zm0-1.265c-10.312 0-17.148-8.543-17.148-21.516 0-12.969 6.836-21.511 17.149-21.511 10.379 0 17.21 8.542 17.21 21.511 0 12.973-6.831 21.516-17.21 21.516ZM679.698 404.659c-6.266-2.469-12.59-5.063-12.59-10.504 0-4.809 4.934-8.48 11.516-8.48 5.062 0 9.175 2.027 10.882 5h-.253c-1.899 0-3.29 1.328-3.29 3.164s1.391 3.101 3.29 3.101c1.71 0 3.039-1.265 3.039-3.101 0-5.442-6.204-9.555-14.239-9.555-8.797 0-15.312 4.933-15.312 11.957 0 7.66 7.719 10.758 14.11 13.351 6.769 2.66 12.655 5.125 12.655 10.442 0 4.937-5.125 8.418-12.34 8.418-5.882 0-10.757-2.281-12.59-5.695h.442c1.707 0 3.04-1.329 3.04-3.165 0-1.835-1.333-3.101-3.04-3.101-1.898 0-3.289 1.266-3.289 3.101 0 5.82 7.149 10.25 16.2 10.25 9.363 0 16.07-4.746 16.07-12.148 0-7.531-6.961-10.25-14.301-13.035ZM737.024 384.917h-16.453v44.293h16.453c13.54 0 23.664-9.555 23.664-22.149 0-12.59-10.125-22.144-23.664-22.144Zm-.824 43.027h-9.996v-41.762h9.996c11.199 0 18.605 8.29 18.605 20.88 0 12.593-7.406 20.882-18.605 20.882ZM775.809 427.944v-20.566h19.867v-1.266H775.81v-19.93h24.93v-1.265h-30.563v44.293h31.195v-1.266ZM422.363 516.317V495.75h19.868v-1.266h-19.868v-19.93h24.93v-1.265h-30.562v44.293h31.195v-1.265ZM491.711 473.29v36.698l-30.183-36.699h-4.746v44.293h1.52v-39.738l32.777 39.738h2.152V473.29ZM542.264 508.598c-2.782 4.933-8.227 8.097-15.121 8.097-11.137 0-18.606-8.351-18.606-21.324 0-12.844 7.406-21.195 18.922-21.195 6.453 0 11.2 2.656 12.973 6.516-.192-.063-.383-.063-.57-.063-1.962 0-3.419 1.39-3.419 3.352 0 1.964 1.457 3.355 3.418 3.355s3.29-1.457 3.29-3.289v-.066c0-6.008-7.34-11.325-17.149-11.325-13.477 0-23.348 9.996-23.348 22.778 0 13.101 10.188 22.781 23.41 22.781 8.165 0 14.934-3.734 17.594-8.73ZM571.874 518.215c10.95 0 17.594-6.77 17.594-17.086v-27.84h-1.52v27.778c0 9.175-5.633 15.125-14.68 15.125-9.05 0-15.062-5.95-15.062-15.125v-27.778h-5.629v26.766c0 10.945 7.973 18.16 19.297 18.16ZM607.054 516.317V495.75h19.868v-1.266h-19.868v-19.93h24.93v-1.265h-30.562v44.293h31.195v-1.265ZM676.402 473.29v36.698L646.22 473.29h-4.746v44.293h1.52v-39.738l32.777 39.738h2.152V473.29ZM721.388 473.29h-35.5v1.265h14.996v43.027h5.633v-43.027h14.871ZM762.073 512.774l-5.695-9.684c-1.266-2.211-3.734-3.793-6.774-4.68 7.786-.949 13.29-5.949 13.29-12.531 0-7.21-6.895-12.59-16.07-12.59H729.42v44.293h5.633v-18.984h10.758c1.644.761 2.972 2.09 3.859 3.547l6.707 11.765c.758 1.332 1.832 2.66 3.289 3.672h6.453c-1.328-.95-2.973-2.848-4.047-4.808Zm-27.02-38.22h10.692c6.774 0 11.266 4.493 11.266 11.391 0 6.895-4.492 11.387-11.266 11.387h-10.691ZM793.073 518.215c13.227 0 23.098-9.809 23.098-22.781 0-12.969-9.871-22.778-23.098-22.778-13.16 0-23.031 9.809-23.031 22.778 0 12.972 9.871 22.781 23.031 22.781Zm0-1.266c-10.312 0-17.148-8.543-17.148-21.515 0-12.969 6.836-21.512 17.148-21.512 10.379 0 17.211 8.543 17.211 21.512 0 12.972-6.832 21.515-17.21 21.515ZM158.125 449.43a1.5 1.5 0 0 1 1.383.925 1.515 1.515 0 0 1-.324 1.633 1.5 1.5 0 0 1-2.117 0c-.141-.14-.25-.304-.325-.488a1.443 1.443 0 0 1-.113-.57c0-.2.035-.39.113-.575a1.519 1.519 0 0 1 .809-.813 1.52 1.52 0 0 1 .574-.112Zm5.984 0c.2 0 .391.039.575.113.183.078.343.187.484.328.14.137.25.3.324.484a1.515 1.515 0 0 1-.324 1.633c-.14.14-.3.246-.484.325a1.52 1.52 0 0 1-1.149 0 1.507 1.507 0 0 1-.484-.325 1.515 1.515 0 0 1-.324-1.633 1.519 1.519 0 0 1 .809-.813 1.52 1.52 0 0 1 .573-.112Zm5.985 0c.199 0 .39.039.574.113.184.078.344.187.484.328.141.137.25.3.325.484.078.184.113.375.113.575 0 .195-.035.386-.113.57a1.463 1.463 0 0 1-.325.488c-.14.14-.3.246-.484.325a1.515 1.515 0 0 1-1.633-.324 1.515 1.515 0 0 1-.324-1.633 1.529 1.529 0 0 1 .812-.813c.184-.074.375-.113.57-.113Zm5.988 0c.195 0 .387.039.57.113.184.078.348.187.489.328.136.137.246.3.324.484a1.515 1.515 0 0 1-.324 1.633 1.515 1.515 0 0 1-1.633.324 1.507 1.507 0 0 1-.485-.324c-.14-.14-.25-.304-.324-.488a1.443 1.443 0 0 1-.113-.57c0-.2.035-.39.113-.575a1.519 1.519 0 0 1 .809-.813 1.52 1.52 0 0 1 .574-.112Zm5.984 0c.2 0 .391.039.575.113.18.078.343.187.484.328.14.137.246.3.324.484a1.515 1.515 0 0 1-.324 1.633c-.14.14-.305.246-.484.325a1.52 1.52 0 0 1-1.149 0 1.507 1.507 0 0 1-.484-.325 1.515 1.515 0 0 1-.324-1.633c.074-.183.183-.347.324-.484.14-.14.3-.25.484-.328a1.52 1.52 0 0 1 .574-.113Zm5.985 0c.199 0 .39.039.574.113.184.078.344.187.484.328.141.137.25.3.325.484.078.184.113.375.113.575 0 .195-.035.386-.113.57a1.463 1.463 0 0 1-.325.488c-.14.14-.3.246-.484.325a1.5 1.5 0 0 1-2.07-1.383c0-.2.039-.39.113-.575.078-.183.184-.347.324-.484a1.5 1.5 0 0 1 1.059-.441Zm5.984 0h.004c.195 0 .387.039.57.113.184.078.344.187.485.328.14.137.25.3.324.484a1.452 1.452 0 0 1 0 1.145 1.463 1.463 0 0 1-.324.488c-.14.14-.301.246-.485.325a1.515 1.515 0 0 1-.57.113h-.004c-.195 0-.387-.04-.57-.113a1.507 1.507 0 0 1-.485-.325c-.14-.14-.25-.304-.324-.488a1.447 1.447 0 0 1 0-1.145 1.519 1.519 0 0 1 .809-.813c.183-.073.375-.112.57-.112Zm5.988 0a1.486 1.486 0 0 1 1.059.441c.14.137.246.3.324.484a1.515 1.515 0 0 1-.324 1.633 1.486 1.486 0 0 1-1.059.438c-.199 0-.39-.04-.574-.113a1.507 1.507 0 0 1-.484-.325c-.14-.14-.25-.304-.324-.488a1.443 1.443 0 0 1-.114-.57c0-.2.036-.39.114-.575.074-.183.183-.347.324-.484.14-.14.3-.25.484-.328a1.52 1.52 0 0 1 .574-.113Zm5.985 0c.199 0 .39.039.574.113.184.078.344.187.484.328.141.137.25.3.325.484a1.515 1.515 0 0 1-.324 1.633c-.141.14-.301.246-.485.325a1.52 1.52 0 0 1-1.148 0 1.551 1.551 0 0 1-.485-.325 1.515 1.515 0 0 1-.324-1.633c.078-.183.184-.347.324-.484.14-.14.305-.25.485-.328a1.52 1.52 0 0 1 .574-.113Zm5.984 0c.2 0 .39.039.574.113.184.078.344.187.485.328.14.137.25.3.324.484.078.184.113.375.113.575 0 .195-.035.386-.113.57a1.463 1.463 0 0 1-.324.488c-.14.14-.301.246-.485.325a1.515 1.515 0 0 1-1.633-.324 1.515 1.515 0 0 1-.324-1.633 1.529 1.529 0 0 1 .813-.813c.183-.074.375-.113.57-.113Zm5.988 0a1.5 1.5 0 0 1 1.383.925 1.515 1.515 0 0 1-.324 1.633 1.5 1.5 0 0 1-2.117 0c-.14-.14-.25-.304-.324-.488a1.443 1.443 0 0 1-.114-.57c0-.2.036-.39.114-.575.074-.183.183-.347.324-.484.14-.14.3-.25.484-.328a1.52 1.52 0 0 1 .574-.113Zm5.985 0c.2 0 .39.039.574.113a1.519 1.519 0 0 1 .809.812 1.515 1.515 0 0 1-.324 1.633c-.141.14-.301.246-.485.325a1.52 1.52 0 0 1-1.148 0 1.507 1.507 0 0 1-.485-.325 1.515 1.515 0 0 1-.324-1.633 1.519 1.519 0 0 1 .809-.813 1.52 1.52 0 0 1 .574-.112Zm5.984 0c.2 0 .39.039.574.113.184.078.344.187.485.328.14.137.25.3.324.484.078.184.113.375.113.575 0 .195-.035.386-.113.57a1.463 1.463 0 0 1-.324.488c-.14.14-.301.246-.485.325a1.5 1.5 0 0 1-1.957-.813 1.515 1.515 0 0 1 0-1.145 1.535 1.535 0 0 1 .813-.813 1.5 1.5 0 0 1 .57-.112Zm5.988 0a1.477 1.477 0 0 1 1.055.441c.14.137.25.3.324.484a1.452 1.452 0 0 1 0 1.145 1.463 1.463 0 0 1-.324.488c-.137.14-.3.246-.484.325a1.515 1.515 0 0 1-1.145 0 1.507 1.507 0 0 1-.484-.325c-.14-.14-.25-.304-.324-.488a1.447 1.447 0 0 1 0-1.145c.074-.183.183-.347.324-.484.14-.14.3-.25.484-.328a1.52 1.52 0 0 1 .575-.113Zm5.985 0a1.486 1.486 0 0 1 1.058.441c.141.137.247.3.325.484a1.515 1.515 0 0 1-.324 1.633c-.141.14-.305.246-.489.325a1.52 1.52 0 0 1-1.145 0 1.507 1.507 0 0 1-.484-.325c-.14-.14-.25-.304-.324-.488a1.443 1.443 0 0 1-.113-.57c0-.2.035-.39.113-.575a1.519 1.519 0 0 1 .809-.813 1.52 1.52 0 0 1 .574-.112Zm5.984 0c.2 0 .39.039.574.113.184.078.344.187.485.328.14.137.25.3.324.484.078.184.113.375.113.575 0 .195-.035.386-.113.57a1.463 1.463 0 0 1-.324.488c-.14.14-.3.246-.485.325a1.52 1.52 0 0 1-.574.113c-.199 0-.39-.04-.57-.113a1.524 1.524 0 0 1-.488-.325 1.515 1.515 0 0 1-.324-1.633c.078-.183.183-.347.324-.484a1.485 1.485 0 0 1 1.059-.441Zm5.985 0c.199 0 .39.039.574.113.183.078.344.187.484.328.14.137.25.3.324.484a1.452 1.452 0 0 1 0 1.145 1.463 1.463 0 0 1-.324.488c-.14.14-.3.246-.484.325a1.515 1.515 0 0 1-1.145 0 1.466 1.466 0 0 1-.484-.325c-.14-.14-.25-.304-.324-.488a1.447 1.447 0 0 1 0-1.145c.074-.183.183-.347.324-.484a1.477 1.477 0 0 1 1.055-.441Zm5.988 0a1.5 1.5 0 0 1 1.383.925 1.515 1.515 0 0 1-.324 1.633 1.5 1.5 0 0 1-2.117 0c-.141-.14-.25-.304-.325-.488a1.443 1.443 0 0 1-.113-.57c0-.2.035-.39.113-.575a1.519 1.519 0 0 1 .809-.813 1.52 1.52 0 0 1 .574-.112Zm5.984 0c.2 0 .39.039.575.113.183.078.343.187.484.328.14.137.25.3.324.484a1.515 1.515 0 0 1-.324 1.633c-.14.14-.3.246-.484.325a1.52 1.52 0 0 1-1.149 0 1.507 1.507 0 0 1-.484-.325 1.515 1.515 0 0 1-.324-1.633 1.519 1.519 0 0 1 .809-.813 1.52 1.52 0 0 1 .573-.112Zm5.985 0c.199 0 .39.039.574.113.183.078.344.187.484.328.14.137.25.3.324.484.079.184.114.375.114.575 0 .195-.035.386-.114.57a1.463 1.463 0 0 1-.324.488c-.14.14-.3.246-.484.325a1.5 1.5 0 0 1-1.957-.813 1.515 1.515 0 0 1 0-1.145 1.529 1.529 0 0 1 .812-.812 1.5 1.5 0 0 1 .57-.113Zm5.988 0c.195 0 .387.039.57.113.184.078.348.187.489.328.136.137.246.3.324.484a1.515 1.515 0 0 1-.324 1.633 1.515 1.515 0 0 1-1.633.324 1.507 1.507 0 0 1-.485-.324c-.14-.14-.25-.304-.324-.488a1.443 1.443 0 0 1-.113-.57c0-.2.035-.39.113-.575a1.519 1.519 0 0 1 .809-.813 1.52 1.52 0 0 1 .574-.112Zm5.984 0c.2 0 .39.039.575.113.18.078.343.187.484.328.14.137.246.3.324.484a1.515 1.515 0 0 1-.324 1.633c-.14.14-.305.246-.484.325a1.52 1.52 0 0 1-1.149 0 1.507 1.507 0 0 1-.484-.325 1.515 1.515 0 0 1-.324-1.633c.074-.183.183-.347.324-.484.14-.14.3-.25.484-.328a1.52 1.52 0 0 1 .574-.113Zm5.985 0c.199 0 .39.039.574.113.183.078.344.187.484.328.14.137.25.3.325.484.078.184.113.375.113.575 0 .195-.035.386-.113.57a1.463 1.463 0 0 1-.325.488c-.14.14-.3.246-.484.325a1.5 1.5 0 0 1-1.957-.813 1.515 1.515 0 0 1 0-1.145c.078-.183.183-.347.324-.484a1.5 1.5 0 0 1 1.059-.441Zm5.984 0h.004c.195 0 .387.039.57.113.184.078.344.187.485.328.14.137.25.3.324.484a1.452 1.452 0 0 1 0 1.145 1.463 1.463 0 0 1-.324.488c-.141.14-.301.246-.485.325a1.515 1.515 0 0 1-.57.113h-.004c-.195 0-.387-.04-.57-.113a1.507 1.507 0 0 1-.485-.325c-.14-.14-.25-.304-.324-.488a1.447 1.447 0 0 1 0-1.145 1.519 1.519 0 0 1 .809-.813c.183-.073.375-.112.57-.112Zm5.988 0a1.5 1.5 0 0 1 1.383.925 1.515 1.515 0 0 1-.324 1.633 1.5 1.5 0 0 1-2.117 0c-.14-.14-.25-.304-.324-.488a1.443 1.443 0 0 1-.114-.57c0-.2.035-.39.114-.575.074-.183.183-.347.324-.484.14-.14.3-.25.484-.328a1.52 1.52 0 0 1 .574-.113Zm5.985 0c.199 0 .39.039.574.113.184.078.344.187.484.328.14.137.25.3.325.484a1.515 1.515 0 0 1-.324 1.633c-.141.14-.301.246-.485.325a1.52 1.52 0 0 1-1.149 0 1.551 1.551 0 0 1-.484-.325 1.515 1.515 0 0 1-.324-1.633c.078-.183.183-.347.324-.484.14-.14.305-.25.485-.328a1.52 1.52 0 0 1 .574-.113Zm5.984 0c.2 0 .39.039.574.113.184.078.344.187.485.328.14.137.25.3.324.484.078.184.113.375.113.575 0 .195-.035.386-.113.57a1.463 1.463 0 0 1-.324.488c-.14.14-.301.246-.485.325a1.515 1.515 0 0 1-1.633-.324 1.515 1.515 0 0 1-.324-1.633 1.529 1.529 0 0 1 .813-.813c.183-.074.375-.113.57-.113Zm5.988 0a1.5 1.5 0 0 1 1.383.925 1.515 1.515 0 0 1-.324 1.633 1.5 1.5 0 0 1-2.117 0c-.14-.14-.25-.304-.324-.488a1.443 1.443 0 0 1-.114-.57c0-.2.035-.39.114-.575.074-.183.183-.347.324-.484.14-.14.3-.25.484-.328a1.52 1.52 0 0 1 .574-.113Zm5.985 0c.199 0 .39.039.574.113a1.519 1.519 0 0 1 .809.812 1.515 1.515 0 0 1-.324 1.633c-.141.14-.301.246-.485.325a1.52 1.52 0 0 1-1.148 0 1.507 1.507 0 0 1-.485-.325 1.515 1.515 0 0 1-.324-1.633 1.519 1.519 0 0 1 .809-.813 1.52 1.52 0 0 1 .574-.112Zm5.984 0c.2 0 .39.039.574.113.184.078.344.187.485.328.14.137.25.3.324.484.078.184.113.375.113.575 0 .195-.035.386-.113.57a1.463 1.463 0 0 1-.324.488c-.14.14-.301.246-.485.325a1.5 1.5 0 0 1-1.957-.813 1.515 1.515 0 0 1 0-1.145 1.535 1.535 0 0 1 .813-.813 1.5 1.5 0 0 1 .57-.112Zm5.988 0a1.477 1.477 0 0 1 1.055.441c.14.137.25.3.324.484a1.452 1.452 0 0 1 0 1.145 1.463 1.463 0 0 1-.324.488c-.137.14-.3.246-.484.325a1.515 1.515 0 0 1-1.145 0 1.507 1.507 0 0 1-.484-.325c-.14-.14-.25-.304-.324-.488a1.447 1.447 0 0 1 0-1.145c.074-.183.183-.347.324-.484.14-.14.3-.25.484-.328a1.52 1.52 0 0 1 .574-.113ZM903.938 452.426c.199 0 .39.039.57.113.183.078.347.184.488.324a1.52 1.52 0 0 1 .438 1.063 1.515 1.515 0 0 1-.438 1.058 1.486 1.486 0 0 1-1.059.438c-.199 0-.39-.04-.574-.113a1.507 1.507 0 0 1-.484-.325c-.14-.14-.25-.304-.324-.488a1.443 1.443 0 0 1-.114-.57c0-.2.036-.39.114-.574.074-.184.183-.348.324-.489.14-.14.3-.246.484-.324a1.52 1.52 0 0 1 .574-.113Zm5.984 0c.2 0 .39.039.574.113.184.078.344.184.484.324a1.52 1.52 0 0 1 .438 1.063 1.515 1.515 0 0 1-.438 1.058c-.14.141-.3.246-.484.325a1.52 1.52 0 0 1-1.148 0 1.551 1.551 0 0 1-.485-.325 1.515 1.515 0 0 1-.324-1.633c.078-.183.184-.347.324-.488.14-.14.305-.246.485-.324a1.52 1.52 0 0 1 .574-.113Zm5.984 0c.2 0 .39.039.574.113.184.078.344.184.485.324a1.524 1.524 0 0 1 .441 1.063 1.52 1.52 0 0 1-.926 1.383 1.515 1.515 0 0 1-1.145 0 1.466 1.466 0 0 1-.483-.325c-.141-.14-.25-.304-.329-.488a1.515 1.515 0 0 1 0-1.144c.079-.184.188-.348.329-.489.136-.14.3-.246.484-.324.184-.074.375-.113.57-.113Zm5.989 0a1.5 1.5 0 0 1 1.382.926c.075.183.114.375.114.574a1.515 1.515 0 0 1-.438 1.058 1.5 1.5 0 0 1-2.117 0c-.14-.14-.25-.304-.324-.488a1.443 1.443 0 0 1-.114-.57c0-.2.036-.39.114-.574.074-.184.183-.348.324-.489.14-.14.3-.246.484-.324a1.52 1.52 0 0 1 .575-.113Zm5.984 0c.2 0 .39.039.574.113.184.078.344.184.485.324a1.52 1.52 0 0 1 .438 1.063 1.515 1.515 0 0 1-.438 1.058c-.141.141-.301.246-.485.325a1.52 1.52 0 0 1-1.148 0 1.507 1.507 0 0 1-.485-.325 1.515 1.515 0 0 1-.324-1.633c.074-.183.184-.347.324-.488.14-.14.301-.246.485-.324a1.52 1.52 0 0 1 .574-.113Zm5.984 0c.2 0 .39.039.574.113.184.078.344.184.485.324.14.14.25.305.324.489.078.183.113.375.113.574 0 .195-.035.387-.113.57a1.463 1.463 0 0 1-.324.488c-.14.141-.3.246-.485.325a1.5 1.5 0 0 1-1.957-.813 1.515 1.515 0 0 1 0-1.144c.079-.184.184-.348.325-.489a1.5 1.5 0 0 1 1.059-.438Zm5.989 0c.195 0 .386.039.57.113.183.078.348.184.484.324.14.14.25.305.328.489.075.183.114.375.114.574 0 .195-.04.387-.114.57a1.535 1.535 0 0 1-.328.488c-.136.141-.3.246-.484.325a1.515 1.515 0 0 1-1.145 0 1.507 1.507 0 0 1-.484-.325c-.14-.14-.25-.304-.324-.488a1.447 1.447 0 0 1 0-1.144c.074-.184.183-.348.324-.489.14-.14.3-.246.484-.324a1.52 1.52 0 0 1 .575-.113Zm5.984 0c.2 0 .39.039.574.113.18.078.344.184.485.324a1.52 1.52 0 0 1 .438 1.063 1.515 1.515 0 0 1-.438 1.058c-.141.141-.305.246-.485.325a1.52 1.52 0 0 1-1.148 0 1.507 1.507 0 0 1-.485-.325 1.515 1.515 0 0 1-.324-1.633c.074-.183.184-.347.324-.488.141-.14.301-.246.485-.324a1.52 1.52 0 0 1 .574-.113Zm5.984 0c.2 0 .39.039.575.113.183.078.343.184.484.324.14.14.25.305.324.489.078.183.113.375.113.574 0 .195-.035.387-.113.57a1.463 1.463 0 0 1-.324.488c-.14.141-.3.246-.484.325a1.52 1.52 0 0 1-.575.113c-.199 0-.39-.04-.57-.113a1.524 1.524 0 0 1-.488-.325 1.515 1.515 0 0 1-.324-1.633c.078-.183.183-.347.324-.488.14-.14.304-.246.488-.324.18-.074.371-.113.57-.113Zm5.985 0c.199 0 .39.039.574.113.183.078.344.184.484.324s.25.305.324.489a1.452 1.452 0 0 1 0 1.144 1.463 1.463 0 0 1-.324.488c-.14.141-.3.246-.484.325a1.515 1.515 0 0 1-1.145 0 1.466 1.466 0 0 1-.484-.325c-.14-.14-.25-.304-.324-.488a1.447 1.447 0 0 1 0-1.144c.074-.184.183-.348.324-.489.137-.14.3-.246.484-.324.184-.074.375-.113.57-.113Zm5.988 0a1.5 1.5 0 0 1 1.383.926 1.515 1.515 0 0 1-.324 1.633 1.5 1.5 0 0 1-2.117 0c-.141-.141-.25-.305-.325-.489a1.443 1.443 0 0 1-.113-.57c0-.2.035-.39.113-.574.074-.184.184-.348.324-.489.141-.14.301-.246.485-.324a1.52 1.52 0 0 1 .574-.113Zm5.984 0c.2 0 .391.039.575.113.183.078.343.184.484.324a1.52 1.52 0 0 1 .438 1.063 1.515 1.515 0 0 1-.438 1.058c-.14.141-.3.246-.484.325a1.52 1.52 0 0 1-1.149 0 1.507 1.507 0 0 1-.484-.325 1.515 1.515 0 0 1-.324-1.633c.078-.183.183-.347.324-.488.14-.14.3-.246.484-.324a1.52 1.52 0 0 1 .574-.113Zm5.985 0c.199 0 .39.039.574.113.184.078.344.184.484.324s.25.305.325.489c.078.183.113.375.113.574 0 .195-.035.387-.113.57a1.463 1.463 0 0 1-.325.488c-.14.141-.3.246-.484.325a1.515 1.515 0 0 1-1.633-.324 1.515 1.515 0 0 1-.324-1.633c.078-.184.187-.348.324-.489a1.515 1.515 0 0 1 1.059-.438Zm5.988 0a1.515 1.515 0 0 1 1.059.437 1.52 1.52 0 0 1 .438 1.063 1.515 1.515 0 0 1-.438 1.058 1.515 1.515 0 0 1-1.633.324 1.507 1.507 0 0 1-.485-.324c-.14-.14-.25-.304-.324-.488a1.443 1.443 0 0 1-.113-.57c0-.2.035-.39.113-.574.074-.184.184-.348.324-.489.141-.14.301-.246.485-.324a1.52 1.52 0 0 1 .574-.113Zm5.984 0c.2 0 .391.039.575.113.18.078.343.184.484.324a1.52 1.52 0 0 1 .438 1.063 1.515 1.515 0 0 1-.438 1.058c-.14.141-.305.246-.484.325a1.52 1.52 0 0 1-1.149 0 1.507 1.507 0 0 1-.484-.325 1.515 1.515 0 0 1-.324-1.633c.074-.183.183-.347.324-.488.14-.14.3-.246.484-.324a1.52 1.52 0 0 1 .574-.113Zm5.985 0c.199 0 .39.039.574.113.184.078.344.184.484.324.141.14.25.305.325.489.078.183.113.375.113.574 0 .195-.035.387-.113.57a1.463 1.463 0 0 1-.325.488c-.14.141-.3.246-.484.325a1.5 1.5 0 0 1-1.957-.813 1.515 1.515 0 0 1 0-1.144c.078-.184.184-.348.324-.489a1.5 1.5 0 0 1 1.059-.438Zm5.984 0h.004c.195 0 .387.039.57.113.184.078.344.184.485.324.14.14.25.305.324.489a1.452 1.452 0 0 1 0 1.144 1.463 1.463 0 0 1-.324.488c-.14.141-.301.246-.485.325a1.515 1.515 0 0 1-.57.113h-.004c-.195 0-.387-.04-.57-.113a1.507 1.507 0 0 1-.485-.325c-.14-.14-.25-.304-.324-.488a1.447 1.447 0 0 1 0-1.144c.074-.184.184-.348.324-.489.141-.14.301-.246.485-.324.183-.074.375-.113.57-.113Zm5.988 0c.2 0 .391.039.57.113.184.078.348.184.489.324a1.52 1.52 0 0 1 .438 1.063 1.515 1.515 0 0 1-.438 1.058 1.486 1.486 0 0 1-1.059.438c-.199 0-.39-.04-.574-.113a1.507 1.507 0 0 1-.484-.325c-.14-.14-.25-.304-.324-.488a1.443 1.443 0 0 1-.114-.57c0-.2.035-.39.114-.574.074-.184.183-.348.324-.489.14-.14.3-.246.484-.324a1.52 1.52 0 0 1 .574-.113Zm5.985 0c.199 0 .39.039.574.113.184.078.344.184.484.324a1.52 1.52 0 0 1 .438 1.063 1.515 1.515 0 0 1-.438 1.058c-.14.141-.3.246-.484.325a1.52 1.52 0 0 1-1.148 0 1.551 1.551 0 0 1-.485-.325 1.515 1.515 0 0 1-.324-1.633c.078-.183.184-.347.324-.488.14-.14.305-.246.485-.324a1.52 1.52 0 0 1 .574-.113Zm5.984 0c.2 0 .39.039.574.113.184.078.344.184.485.324.14.14.25.305.324.489.078.183.113.375.113.574 0 .195-.035.387-.113.57a1.463 1.463 0 0 1-.324.488c-.14.141-.301.246-.485.325a1.515 1.515 0 0 1-1.633-.324 1.515 1.515 0 0 1-.324-1.633c.078-.184.188-.348.325-.489a1.515 1.515 0 0 1 1.059-.438Zm5.988 0a1.5 1.5 0 0 1 1.383.926c.074.183.114.375.114.574a1.515 1.515 0 0 1-.438 1.058 1.5 1.5 0 0 1-2.117 0c-.14-.14-.25-.304-.324-.488a1.443 1.443 0 0 1-.114-.57c0-.2.035-.39.114-.574.074-.184.183-.348.324-.489.14-.14.3-.246.484-.324a1.52 1.52 0 0 1 .574-.113Zm5.985 0c.199 0 .39.039.574.113.184.078.344.184.484.324a1.52 1.52 0 0 1 .438 1.063 1.515 1.515 0 0 1-.438 1.058c-.14.141-.3.246-.484.325a1.52 1.52 0 0 1-1.148 0 1.507 1.507 0 0 1-.485-.325 1.515 1.515 0 0 1-.324-1.633c.074-.183.184-.347.324-.488.14-.14.301-.246.485-.324a1.52 1.52 0 0 1 .574-.113Zm5.984 0c.2 0 .39.039.574.113.184.078.344.184.485.324.14.14.25.305.324.489.078.183.113.375.113.574 0 .195-.035.387-.113.57a1.463 1.463 0 0 1-.324.488c-.14.141-.301.246-.485.325a1.5 1.5 0 0 1-1.957-.813 1.515 1.515 0 0 1 0-1.144c.079-.184.184-.348.325-.489a1.5 1.5 0 0 1 1.059-.438Zm5.988 0c.196 0 .387.039.57.113.184.078.348.184.485.324.14.14.25.305.324.489a1.452 1.452 0 0 1 0 1.144 1.463 1.463 0 0 1-.324.488c-.137.141-.3.246-.484.325a1.515 1.515 0 0 1-1.145 0 1.507 1.507 0 0 1-.484-.325c-.14-.14-.25-.304-.324-.488a1.447 1.447 0 0 1 0-1.144c.074-.184.183-.348.324-.489.14-.14.3-.246.484-.324a1.52 1.52 0 0 1 .574-.113Zm5.985 0c.2 0 .39.039.57.113.184.078.348.184.488.324a1.52 1.52 0 0 1 .438 1.063 1.515 1.515 0 0 1-.438 1.058 1.486 1.486 0 0 1-1.059.438c-.198 0-.39-.04-.573-.113a1.507 1.507 0 0 1-.485-.325c-.14-.14-.25-.304-.324-.488a1.443 1.443 0 0 1-.113-.57c0-.2.035-.39.113-.574.074-.184.184-.348.324-.489.14-.14.301-.246.485-.324a1.52 1.52 0 0 1 .574-.113Zm5.984 0c.2 0 .39.039.574.113.184.078.344.184.485.324.14.14.25.305.324.489.078.183.113.375.113.574 0 .195-.035.387-.113.57a1.463 1.463 0 0 1-.324.488c-.14.141-.301.246-.485.325a1.52 1.52 0 0 1-.574.113c-.199 0-.39-.04-.57-.113a1.524 1.524 0 0 1-.488-.325 1.515 1.515 0 0 1-.324-1.633c.078-.183.183-.347.324-.488.14-.14.304-.246.488-.324.18-.074.371-.113.57-.113Zm5.985 0c.199 0 .39.039.574.113.183.078.344.184.484.324s.25.305.324.489a1.452 1.452 0 0 1 0 1.144 1.463 1.463 0 0 1-.324.488c-.14.141-.3.246-.484.325a1.515 1.515 0 0 1-1.145 0 1.466 1.466 0 0 1-.484-.325c-.14-.14-.25-.304-.324-.488a1.447 1.447 0 0 1 0-1.144c.074-.184.183-.348.324-.489.137-.14.3-.246.484-.324.184-.074.375-.113.57-.113Zm5.988 0a1.5 1.5 0 0 1 1.383.926 1.515 1.515 0 0 1-.324 1.633 1.5 1.5 0 0 1-2.117 0c-.141-.141-.25-.305-.325-.489a1.443 1.443 0 0 1-.113-.57c0-.2.035-.39.113-.574.074-.184.184-.348.324-.489.14-.14.301-.246.485-.324a1.52 1.52 0 0 1 .574-.113Zm5.984 0c.2 0 .39.039.574.113.184.078.344.184.485.324a1.52 1.52 0 0 1 .438 1.063 1.515 1.515 0 0 1-.438 1.058c-.14.141-.3.246-.485.325a1.52 1.52 0 0 1-1.148 0 1.507 1.507 0 0 1-.484-.325 1.515 1.515 0 0 1-.324-1.633c.078-.183.183-.347.324-.488.14-.14.3-.246.484-.324a1.52 1.52 0 0 1 .574-.113Zm5.985 0c.199 0 .39.039.574.113.183.078.344.184.484.324s.25.305.324.489c.079.183.114.375.114.574 0 .195-.035.387-.114.57a1.463 1.463 0 0 1-.324.488c-.14.141-.3.246-.484.325a1.5 1.5 0 0 1-1.957-.813 1.515 1.515 0 0 1 0-1.144c.078-.184.187-.348.324-.489a1.5 1.5 0 0 1 1.059-.438Zm5.988 0a1.515 1.515 0 0 1 1.059.437 1.52 1.52 0 0 1 .438 1.063 1.515 1.515 0 0 1-.438 1.058 1.515 1.515 0 0 1-1.633.324 1.507 1.507 0 0 1-.485-.324c-.14-.14-.25-.304-.324-.488a1.443 1.443 0 0 1-.113-.57c0-.2.035-.39.113-.574.074-.184.184-.348.324-.489.14-.14.301-.246.485-.324a1.52 1.52 0 0 1 .574-.113Zm0 0" fill="#D6968F"/><path d="M480.978 551.579c2 0 3.566.48 4.703 1.437 1.145.95 1.719 2.258 1.719 3.922 0 1.668-.574 2.98-1.719 3.938-1.137.95-2.703 1.422-4.703 1.422h-3.797v4.656h-2.187v-15.375Zm-.062 8.812c1.394 0 2.457-.296 3.187-.89.727-.594 1.094-1.445 1.094-2.563 0-1.113-.367-1.968-1.094-2.562-.73-.594-1.793-.89-3.187-.89h-3.735v6.905ZM501.221 566.954l-3.328-4.719c-.406.031-.73.047-.969.047h-3.797v4.672h-2.187v-15.375h5.984c2 0 3.567.48 4.703 1.437 1.145.95 1.72 2.258 1.72 3.922 0 1.188-.294 2.2-.876 3.032-.586.836-1.422 1.445-2.516 1.828l3.657 5.156Zm-4.36-6.547c1.395 0 2.458-.297 3.188-.89.727-.602 1.094-1.461 1.094-2.579 0-1.113-.367-1.968-1.094-2.562-.73-.594-1.793-.89-3.187-.89h-3.735v6.921ZM513.933 567.126c-1.554 0-2.953-.336-4.203-1.016a7.712 7.712 0 0 1-2.937-2.828c-.711-1.195-1.063-2.535-1.063-4.016 0-1.476.352-2.816 1.063-4.015a7.6 7.6 0 0 1 2.937-2.828c1.25-.676 2.649-1.016 4.203-1.016 1.54 0 2.93.34 4.172 1.016a7.417 7.417 0 0 1 2.922 2.812c.707 1.188 1.063 2.531 1.063 4.031 0 1.493-.356 2.836-1.063 4.032-.7 1.187-1.672 2.125-2.922 2.812-1.242.68-2.633 1.016-4.172 1.016Zm0-1.953c1.125 0 2.133-.254 3.032-.766a5.607 5.607 0 0 0 2.14-2.11c.52-.906.781-1.913.781-3.03 0-1.114-.261-2.118-.78-3.016a5.62 5.62 0 0 0-2.141-2.125c-.899-.508-1.907-.766-3.032-.766s-2.148.258-3.062.766a5.554 5.554 0 0 0-2.156 2.125c-.524.898-.782 1.902-.782 3.015 0 1.118.258 2.125.782 3.032a5.541 5.541 0 0 0 2.156 2.11c.914.51 1.937.765 3.062.765ZM535.19 566.954l-4.61-6.344-4.546 6.344h-2.531l5.78-7.89-5.421-7.485h2.5l4.312 5.906 4.25-5.906h2.407l-5.438 7.422 5.828 7.953ZM540.404 551.579h2.187v15.375h-2.187ZM561.55 566.954l-.015-11.203-5.563 9.328h-1.015l-5.547-9.266v11.141h-2.11v-15.375h1.797l6.407 10.812 6.328-10.812h1.812l.016 15.375ZM578.161 563.11h-8.172l-1.703 3.844h-2.25l6.953-15.375h2.172l7 15.375h-2.312Zm-.781-1.765-3.312-7.532-3.313 7.532ZM598.78 566.954l-.015-11.203-5.563 9.328h-1.016l-5.546-9.266v11.141h-2.11v-15.375h1.797l6.406 10.812 6.328-10.812h1.813l.016 15.375ZM616.75 565.048v1.906h-11.156v-15.375h10.844v1.906h-8.656v4.719h7.718v1.875h-7.718v4.969ZM633.617 551.579v15.375h-1.797l-9.234-11.469v11.469h-2.188v-15.375h1.797l9.219 11.469v-11.469ZM641.368 553.485h-5.266v-1.906h12.719v1.906h-5.281v13.469h-2.172ZM662.458 565.048v1.906h-11.156v-15.375h10.844v1.906h-8.656v4.719h7.718v1.875h-7.718v4.969ZM683.259 565.048v1.906h-11.157v-15.375h10.844v1.906h-8.656v4.719h7.719v1.875h-7.72v4.969ZM700.125 551.579v15.375h-1.797l-9.234-11.469v11.469h-2.188v-15.375h1.797l9.219 11.469v-11.469ZM718.173 551.579l-6.734 15.375h-2.172l-6.766-15.375h2.36l5.546 12.625 5.579-12.625ZM720.556 551.579h2.187v15.375h-2.187ZM734.39 567.126c-1.555 0-2.953-.336-4.203-1.016a7.712 7.712 0 0 1-2.938-2.828c-.71-1.195-1.062-2.535-1.062-4.016 0-1.476.352-2.816 1.062-4.015a7.6 7.6 0 0 1 2.938-2.828c1.25-.676 2.648-1.016 4.203-1.016 1.54 0 2.93.34 4.172 1.016a7.417 7.417 0 0 1 2.922 2.812c.707 1.188 1.062 2.531 1.062 4.031 0 1.493-.355 2.836-1.062 4.032-.7 1.187-1.672 2.125-2.922 2.812-1.242.68-2.633 1.016-4.172 1.016Zm0-1.953c1.125 0 2.133-.254 3.031-.766a5.607 5.607 0 0 0 2.141-2.11c.52-.906.781-1.913.781-3.03 0-1.114-.261-2.118-.781-3.016a5.62 5.62 0 0 0-2.14-2.125c-.9-.508-1.907-.766-3.032-.766s-2.148.258-3.062.766a5.554 5.554 0 0 0-2.157 2.125c-.523.898-.78 1.902-.78 3.015 0 1.118.257 2.125.78 3.032a5.541 5.541 0 0 0 2.157 2.11c.914.51 1.937.765 3.062.765ZM750.46 567.126a10.55 10.55 0 0 1-3.344-.531c-1.075-.364-1.918-.829-2.532-1.391l.813-1.719c.582.524 1.332.95 2.25 1.281.914.336 1.851.5 2.812.5 1.282 0 2.235-.21 2.86-.64.632-.438.953-1.016.953-1.735 0-.53-.172-.957-.516-1.28a3.492 3.492 0 0 0-1.281-.766c-.5-.176-1.215-.375-2.14-.594-1.157-.281-2.09-.555-2.798-.828a4.727 4.727 0 0 1-1.828-1.282c-.5-.582-.75-1.363-.75-2.343 0-.82.211-1.563.64-2.219.438-.664 1.095-1.191 1.97-1.578.875-.395 1.96-.594 3.265-.594.914 0 1.813.121 2.688.36.875.23 1.629.562 2.265 1l-.734 1.75a8.133 8.133 0 0 0-2.062-.922 7.491 7.491 0 0 0-2.157-.329c-1.242 0-2.172.23-2.797.688-.625.45-.937 1.031-.937 1.75 0 .531.176.965.531 1.297.352.324.79.578 1.313.765.52.18 1.222.372 2.11.579 1.155.28 2.081.562 2.78.843a4.569 4.569 0 0 1 1.813 1.266c.508.574.765 1.34.765 2.297 0 .812-.218 1.555-.656 2.219-.437.668-1.105 1.195-2 1.578-.887.386-1.984.578-3.297.578Zm0 0" fill="#393737"/></svg>